<svg xmlns="http://www.w3.org/2000/svg" height="800" width="1200" viewBox="-47.2797 -14.48875 409.7574 86.9325"><path d="M210.303 4.1452c-2.7174-2.495-7.7686-3.172-12.1814-3.172H174.772L158.8942 50.955h14.2615l4.5862-14.3994s9.734.025 13.9953-.0593c8.8112-.1727 16.9984-3.402 20.9888-16.8017 2.2669-7.6264.6006-12.7704-2.423-15.5493m-10.785 15.3515c-1.2121 3.5785-2.5475 4.9304-4.204 6.0175-1.8079 1.189-3.3583 1.5247-5.752 1.6424-2.0801.0971-8.8476.0929-8.8476.0929l5.476-17.1668h8.0872c2.0838 0 3.7255.2215 4.801 1.0993 1.112.9112 2.1996 3.1335.4394 8.3147M40.9291 39.5272s-24.3987 5.3375-25.3735-2.3968c-.5689-4.5184 4.7144-19.2834 6.5485-21.9037 2.0556-2.9357 5.0379-4.1283 8.0725-4.5526 6.3104-.8776 13.7896.6428 16.4349 1.3233L49.9905 1.44S38.838-.458 26.6115.1041c-2.987.1391-6.8543.8861-9.6405 2.0624-3.7164 1.5619-6.784 4.4262-9.3914 10.5651C5.0826 18.5984 2.335 27.883.831 33.5361c-.2368.8978-2.058 7.8356.5878 11.9555 3.0048 4.6735 8.4704 5.647 10.5847 5.8789 9.8138 1.0706 25.465-.5383 25.465-.5383l3.4607-11.305M97.5551 5.4507C93.793.5625 87.7736.272 77.416.062 70.6094-.0711 62.9019.0532 58.6977 2.889c-2.1533 1.4478-4.11 3.1286-6.1718 8.8354-.9437 2.5989-4.5984 13.454-6.1537 18.8465-1.4672 5.0897-2.1545 9.3932-.8043 13.2952 1.051 3.0488 3.1347 5.0972 6.859 6.761 3.722 1.6662 17.4427 1.2762 22.538.982 5.094-.293 8.1676-1.767 10.4393-3.5272 3.0323-2.348 4.5472-5.4883 6.0267-9.4104 1.212-3.2086 3.1152-9.1749 6.0253-18.91 1.753-5.8704 3.0213-10.5115.099-14.3109M83.445 16.8771s-4.015 13.3374-4.9035 16.0406c-.9644 2.9365-2.0594 6.4802-4.6814 8.3155-1.897 1.327-4.989 1.3605-4.989 1.3605s-2.9969.1178-4.242-.0336c-.5139-.0629-3.3447-.1007-4.7546-2.2211-1.6345-2.4658.4895-7.6434.4895-7.6434s4.951-15.1899 5.93-17.5396c.9803-2.3524 1.2659-3.3943 2.7454-4.5105 1.5919-1.2019 4.3567-1.2555 5.4541-1.3025 1.1573-.0508 2.2766-.0671 3.28-.0208.3358.0125 5.282-.1727 6.3575 1.9775.7788 1.5583-.6861 5.5774-.6861 5.5774M240.74.9946c-5.5725 0-7.2095 1.0205-9.6875 2.5786-2.6844 1.6883-5.3186 6.5095-6.9055 8.802-1.4759 2.1252-24.5569 38.4454-24.5569 38.4454h14.0503l6.4807-10.5657h16.9934l-.586 10.72h14.0345L252.5942.9947H240.74m-3.1885 30.0335l-12.0313.0593 13.0835-21.1982-1.0522 21.139m64.5861 11.4763l-2.2497.047c1.7505-1.2891 5.1355-11.9806 7.6295-20.589 2.036-7.0337 4.0367-12.9596.4882-16.9739C304.2262.7137 297.6857.272 287.914.062c-7.688-.163-14.2309.1897-18.3288 2.8521-2.7136 1.759-4.4397 3.6566-6.576 9.364-.9705 2.5916-4.0576 11.9978-5.5322 17.4151-1.6113 5.9424-2.6318 9.4404-1.3184 13.9374 1.0304 3.5236 3.5255 5.7239 6.9008 6.9715 2.2875.8471 5.863 1.0235 10.3502 1.1041.022-.0298 1.7774-2.6458 5.8424-5.1068 2.3937-1.444 5.498-2.5568 7.622-3.0645 2.2546-.5378 5.3955-.92 7.9334-.9748 1.9518-.0421 3.2287.0421 3.2287.0421-2.9821.2637-6.5356.882-10 2.0997-3.8842 1.3598-7.373 3.8927-9.5605 6.9995-2.0667 2.935-2.494 6.2536-2.494 6.2536s.365-.6928 1.3086-1.604c1.709-1.6675 4.1077-3.1335 7.8748-3.9135 2.4157-.5043 5.9925-.7398 10.0281-.7313 2.1545.0088 17.2461 0 17.2461 0l2.7588-9.2016h-13.0604m-7.5316-27.0935c-.3919 1.6595-3.7098 12.7831-5.1368 17.066-.952 2.8644-1.8262 5.9845-3.9123 7.879-1.8372 1.6626-3.9355 1.9519-6.3587 2.204-1.8945.1965-4.8645-.0421-4.8645-.0421s-2.6905-.2051-3.8672-2.3353c-.8643-1.5612-.5164-3.6443-.0744-5.2575.3051-1.1218 5.2526-17.4273 6.2524-19.7692.8899-2.0966 1.2817-3.2679 2.8882-4.5105 1.6687-1.2855 4.0527-1.269 4.9475-1.3533 1.576-.1427 4.8792-.0335 4.8792-.0335s3.7768.0335 5.1 1.407c1.2196 1.2675.4993 3.2342.1466 4.7454M109.7707.7931L93.9175 50.8242h13.2336l12.4255-38.7432 5.2479 30.6256h2.7062l23.1287-31.3684-12.5477 39.486h13.65L167.6222.9946s-13.6046-.0112-14.104 0c-.5223.0088-6.4537-.2722-10.5297 4.909-1.8994 2.4103-10.387 14.2529-10.387 14.2529s-1.4806-8.391-2.2754-12.4761c-.8764-4.549-4.0344-6.3832-8.5717-6.7408-2.2095-.1715-11.9837-.1465-11.9837-.1465" fill="#e00024"/></svg>