<svg xmlns="http://www.w3.org/2000/svg" height="800" width="1200" viewBox="-94.55625 -25.625 819.4875 153.75"><path d="M0 0v20.625h86.375l.5 20.375H0v61.5h22.375V61h39.25l24.5 41.5h25.5L87.875 62c10.917 0 21.75-5.913 21.75-14.5V15.75c0-8.519-9.662-15.75-22-15.75zm129.375 0l43.5 62.375V102.5h20V62.375L239.375 0h-26.25l-30.25 40-29.5-40zm131.75 0v20.625h72.25l-72.25 61.625v20.25H365.5V82.25h-71.875L365.5 20.625V0zM394 0v20.625h103.75V0zm155.5 0h-22.875v102.5H549.5v-69l59.25 69h21.625V0H608.75v67.5zM394 41v61.5h103.75V82.25h-83.125v-21h83.125V41z"/></svg>