<svg xmlns="http://www.w3.org/2000/svg" height="800" width="1200" viewBox="-74.55 -28.61675 646.1 171.7005"><defs><clipPath clipPathUnits="userSpaceOnUse" id="a"><path d="M0 841.89h1190.551V0H0z"/></clipPath></defs><g clip-path="url(#a)" transform="matrix(4.03813 0 0 -4.03813 -187.616 3264.142)" fill="#4d5269"><path d="M95.498 785.601a3.732 3.732 0 013.733 3.734 3.733 3.733 0 01-3.733 3.736 3.735 3.735 0 110-7.47"/><path d="M119.758 780.704c-3.803 0-7.273 1.528-10.029 5.661-2.756 4.132-6.153 9.588-8.024 12.363-1.81 2.698-3.508 4.087-6.429 4.087-2.916 0-4.622-1.389-6.43-4.087-1.873-2.775-5.268-8.23-8.02-12.363-2.759-4.133-6.216-5.66-10.037-5.66-3.81 0-7.273 1.527-10.033 5.66-2.758 4.132-5.99 9.013-7.85 11.783-1.822 2.696-3.521 4.141-6.445 4.141v4.595c4.219 0 7.803-2.018 10.75-6.483 2.955-4.468 5.152-7.718 7.109-10.719 1.94-2.997 3.799-4.423 6.469-4.423 2.672 0 4.533 1.426 6.484 4.423 1.942 3.001 4.309 6.83 7.262 11.293 2.94 4.467 6.52 6.482 10.741 6.482 4.212 0 7.796-2.015 10.742-6.482 2.959-4.464 5.322-8.292 7.273-11.293 1.938-2.997 3.791-4.466 6.467-4.466zm10.89 27.626c-2.27-2.27-3.645-4.243-3.645-9.99v-17.718h4.97v17.963c0 2.82.205 4.178 1.637 5.654zm24.79-23.665c5.05 0 9.148 4.217 9.148 9.417 0 5.205-4.097 9.421-9.148 9.421-5.057 0-9.15-4.216-9.15-9.42 0-5.2 4.093-9.418 9.15-9.418m-14.098 9.417c0 7.79 6.31 14.101 14.098 14.101 7.787 0 14.1-6.312 14.1-14.1 0-7.783-6.313-14.1-14.1-14.1-7.788 0-14.098 6.317-14.098 14.1"/></g></svg>